<?xml version="1.0" standalone="no"?><!DOCTYPE svg PUBLIC "-//W3C//DTD SVG 1.1//EN" "http://www.w3.org/Graphics/SVG/1.1/DTD/svg11.dtd"><svg t="1519368401348" class="icon" style="" viewBox="0 0 1024 1024" version="1.1" xmlns="http://www.w3.org/2000/svg" p-id="2622" xmlns:xlink="http://www.w3.org/1999/xlink" width="200" height="200"><defs><style type="text/css"></style></defs><path d="M941 959.9c-4.7 0-9.4-1.8-12.9-5.4L756.5 782.9c-7.1-7.1-7.1-18.7 0-25.9 7.1-7.1 18.7-7.1 25.9 0L954 928.7c7.1 7.1 7.1 18.7 0 25.9-3.6 3.5-8.3 5.3-13 5.3zM227.9 477.6c-5.1 0-9.1-4.1-9.1-9.1 0-7.4 0.3-14.8 1-22.1 0.4-5 5.1-8.6 9.9-8.3 5 0.4 8.8 4.9 8.3 9.9-0.6 6.8-0.9 13.6-0.9 20.5-0.1 5-4.1 9.1-9.2 9.1z m9.9-68.4c-0.9 0-1.7-0.1-2.6-0.4-4.8-1.4-7.6-6.5-6.2-11.4 31.1-104.9 129.3-178.2 238.9-178.2 5.1 0 9.1 4.1 9.1 9.1s-4.1 9.1-9.1 9.1c-101.5 0-192.5 67.9-221.4 165.1-1.1 4.2-4.8 6.7-8.7 6.7z" fill="#999999" p-id="2623"></path><path d="M483.9 905C252 905 63.3 716.4 63.3 484.4S252 63.9 483.9 63.9s420.6 188.7 420.6 420.6c0 111.6-43.3 216.8-121.9 296.1-7.1 7.2-18.7 7.2-25.9 0.1-7.2-7.1-7.2-18.7-0.1-25.9 71.8-72.4 111.3-168.4 111.3-270.3 0-211.7-172.3-384-384-384s-384 172.3-384 384 172.3 384 384 384c79.7 0 156.2-24.2 221.1-70 8.2-5.8 19.6-3.8 25.5 4.4 5.8 8.3 3.8 19.7-4.4 25.5C655 878.5 571.2 905 483.9 905z" fill="#999999" p-id="2624"></path></svg>